<svg xmlns="http://www.w3.org/2000/svg" viewBox="0 0 120 120" fill="none">
  
  <circle cx="52" cy="26" r="10" stroke="#093C5C" stroke-width="3"></circle>
  <path d="M36 78V62a16 16 0 0 1 16-16h0a16 16 0 0 1 16 16v16" stroke="#093C5C" stroke-width="3" stroke-linecap="round"></path>
  <rect x="66" y="44" width="18" height="30" rx="4" stroke="#093C5C" stroke-width="3"></rect>
  <path d="M71 68h8" stroke="#093C5C" stroke-width="3" stroke-linecap="round"></path>
  <path d="M96 26c0 8-9 16-9 16s-9-8-9-16a9 9 0 0 1 18 0Z" stroke="#093C5C" stroke-width="3" stroke-linejoin="round"></path>
  <path d="M87 30c2.5-4 6-4.5 6-4.5s.3 4.3-2.2 6.7c-1.6 1.5-3.8 1-3.8 1s-.6-1.7 0-3.2Z" fill="#4ACB78"></path>
  <path d="M8 96c14 0 18-10 30-10s18 10 32 10 20-10 34-10" stroke="#093C5C" stroke-width="3" stroke-linecap="round" stroke-dasharray="1 8"></path>
  <circle cx="60" cy="96" r="5" fill="#fff" stroke="#28ABE3" stroke-width="3"></circle>
  <circle cx="104" cy="86" r="5" fill="#fff" stroke="#4ACB78" stroke-width="3"></circle>
</svg>